<mxfile host="app.diagrams.net" agent="Mozilla/5.0 (Windows NT 10.0; Win64; x64) AppleWebKit/537.36 (KHTML, like Gecko) Chrome/131.0.0.0 Safari/537.36 Edg/131.0.0.0" version="25.0.3">
  <diagram name="Страница — 1" id="Vv9CUS76__U313AQDiVv">
    <mxGraphModel dx="1544" dy="1764" grid="1" gridSize="10" guides="1" tooltips="1" connect="1" arrows="1" fold="1" page="1" pageScale="1" pageWidth="1169" pageHeight="827" math="0" shadow="0">
      <root>
        <mxCell id="0" />
        <mxCell id="1" parent="0" />
        <mxCell id="gJnD3AJdq-voNJq3h5jt-1" style="edgeStyle=orthogonalEdgeStyle;rounded=0;orthogonalLoop=1;jettySize=auto;html=1;exitX=1;exitY=0.5;exitDx=0;exitDy=0;entryX=0;entryY=0.5;entryDx=0;entryDy=0;" edge="1" parent="1" source="gJnD3AJdq-voNJq3h5jt-2" target="gJnD3AJdq-voNJq3h5jt-5">
          <mxGeometry relative="1" as="geometry" />
        </mxCell>
        <mxCell id="gJnD3AJdq-voNJq3h5jt-2" value="Таблица лексем" style="rounded=0;whiteSpace=wrap;html=1;fontSize=20;fontFamily=Times New Roman;" vertex="1" parent="1">
          <mxGeometry x="360" y="400" width="200" height="80" as="geometry" />
        </mxCell>
        <mxCell id="gJnD3AJdq-voNJq3h5jt-3" style="edgeStyle=orthogonalEdgeStyle;rounded=0;orthogonalLoop=1;jettySize=auto;html=1;exitX=1;exitY=0.5;exitDx=0;exitDy=0;entryX=0;entryY=0.5;entryDx=0;entryDy=0;" edge="1" parent="1" source="gJnD3AJdq-voNJq3h5jt-4" target="gJnD3AJdq-voNJq3h5jt-5">
          <mxGeometry relative="1" as="geometry" />
        </mxCell>
        <mxCell id="gJnD3AJdq-voNJq3h5jt-4" value="Таблица идентификаторов" style="rounded=0;whiteSpace=wrap;html=1;fontSize=20;fontFamily=Times New Roman;" vertex="1" parent="1">
          <mxGeometry x="360" y="280" width="200" height="80" as="geometry" />
        </mxCell>
        <mxCell id="gJnD3AJdq-voNJq3h5jt-7" value="" style="edgeStyle=orthogonalEdgeStyle;rounded=0;orthogonalLoop=1;jettySize=auto;html=1;" edge="1" parent="1" source="gJnD3AJdq-voNJq3h5jt-5" target="gJnD3AJdq-voNJq3h5jt-6">
          <mxGeometry relative="1" as="geometry" />
        </mxCell>
        <mxCell id="gJnD3AJdq-voNJq3h5jt-5" value="Генератор кода" style="rounded=0;whiteSpace=wrap;html=1;fontSize=20;fontFamily=Times New Roman;" vertex="1" parent="1">
          <mxGeometry x="640" y="340" width="200" height="80" as="geometry" />
        </mxCell>
        <mxCell id="gJnD3AJdq-voNJq3h5jt-6" value="Код ассемблера" style="rounded=0;whiteSpace=wrap;html=1;fontSize=20;fontFamily=Times New Roman;" vertex="1" parent="1">
          <mxGeometry x="880" y="340" width="200" height="80" as="geometry" />
        </mxCell>
      </root>
    </mxGraphModel>
  </diagram>
</mxfile>
